<svg width="32" height="32" viewBox="0 0 32 32" fill="none" xmlns="http://www.w3.org/2000/svg">
<rect width="32" height="32" rx="16" fill="#455054" fill-opacity="0.1"/>
<path d="M20 15.4808C17.8 15.4808 16 17.3976 16 19.7403C16 22.0831 17.8 23.9999 20 23.9999C22.2 23.9999 23.9999 22.0831 23.9999 19.7403C23.9999 17.3976 22.2 15.4808 20 15.4808ZM21.5 20.2728H20.5V21.3377C20.5 21.6571 20.3 21.8701 20 21.8701C19.7 21.8701 19.5 21.6571 19.5 21.3377V20.2728H18.5C18.2 20.2728 18 20.0598 18 19.7403C18 19.4209 18.2 19.2079 18.5 19.2079H19.5V18.143C19.5 17.8235 19.7 17.6106 20 17.6106C20.3 17.6106 20.5 17.8235 20.5 18.143V19.2079H21.5C21.8 19.2079 22 19.4209 22 19.7403C22 20.0598 21.8 20.2728 21.5 20.2728Z" fill="#455054"/>
<path d="M21.7499 11.807L15.25 8.07987C15.1 7.97338 14.9 7.97338 14.8 8.07987L8.3 11.807C8.1 11.9135 8 12.0732 8 12.2862V13.8835C8 14.203 8.2 14.4159 8.5 14.4159H21.4999C21.7999 14.4159 21.9999 14.203 21.9999 13.8835V12.2862C21.9999 12.0732 21.8999 11.9135 21.7499 11.807Z" fill="#455054"/>
<path d="M11.5 19.7406C11.8 19.7406 12 19.5276 12 19.2081V15.481C12 15.1615 11.8 14.9486 11.5 14.9486H10.5C10.2 14.9486 10 15.1615 10 15.481V19.2081C10 19.5276 10.2 19.7406 10.5 19.7406H11.5Z" fill="#455054"/>
<path d="M8.5 20.2729C8.2 20.2729 8 20.4859 8 20.8053V22.4027C8 22.7221 8.2 22.9351 8.5 22.9351H15.9999C15.45 22.1897 15.1 21.2845 15 20.2729H8.5Z" fill="#455054"/>
<path d="M15 19.7406C15 18.5692 15.4 17.4511 16 16.5459V15.481C16 15.1615 15.8 14.9486 15.5 14.9486H14.5C14.2 14.9486 14 15.1615 14 15.481V19.2081C14 19.5276 14.2 19.7406 14.5 19.7406H15Z" fill="#455054"/>
</svg>
