<svg width="32" height="32" viewBox="0 0 32 32" fill="none" xmlns="http://www.w3.org/2000/svg">
<g clip-path="url(#clip0_7090_10162)">
<circle cx="16" cy="16" r="16" fill="#D45769" fill-opacity="0.1"/>
<path d="M21.7173 8H12.2992C12.1192 8 11.9731 8.1461 11.9731 8.3261C11.9731 8.50609 12.1186 8.65219 12.2992 8.65219C13.2827 8.65219 14.1534 9.27959 14.4645 10.2122L14.5219 10.3863C14.5662 10.52 14.6908 10.61 14.8316 10.61L22.3695 10.6087C22.543 10.6087 22.7236 10.6347 22.9395 10.6908C22.9669 10.698 22.9943 10.7013 23.0217 10.7013C23.0927 10.7013 23.1632 10.6778 23.2212 10.6334C23.3008 10.5715 23.3478 10.4763 23.3478 10.3752V9.63042C23.3478 8.73174 22.616 8 21.7173 8Z" fill="#D45769"/>
<path d="M22.3696 11.2609H14.8311C14.4098 11.2609 14.0367 10.9922 13.9031 10.5924L13.8457 10.4196C13.6233 9.75239 13.0018 9.30435 12.2994 9.30435H10.6304C9.73174 9.30435 9 10.0361 9 10.9348V18.7608C9 19.6595 9.73174 20.3912 10.6304 20.3912H11.9348C12.1148 20.3912 12.2609 20.2451 12.2609 20.0651C12.2609 19.6236 12.3385 19.1808 12.4983 18.7099C12.5726 18.4901 12.7239 18.303 12.9235 18.1836C13.0207 18.1256 13.0806 18.0212 13.0826 17.9084C13.0859 17.6749 13.1726 17.4499 13.3265 17.2745C13.9539 16.561 14.7646 16.0888 15.6711 15.9088C15.9006 15.8625 16.1393 15.9023 16.3409 16.0158C16.44 16.0712 16.5613 16.0712 16.6604 16.0158C16.8613 15.903 17.1006 15.8638 17.3302 15.9088C18.2361 16.0888 19.0467 16.561 19.6741 17.2745C19.828 17.4499 19.9148 17.6749 19.918 17.9084C19.9194 18.0212 19.98 18.1256 20.0772 18.1836C20.2767 18.303 20.428 18.4895 20.5024 18.7099C20.6615 19.1808 20.7391 19.6242 20.7391 20.0651C20.7391 20.2451 20.8852 20.3912 21.0652 20.3912H22.3696C23.2683 20.3912 24 19.6595 24 18.7608V12.8913C24 11.9926 23.2683 11.2609 22.3696 11.2609Z" fill="#D45769"/>
<path d="M19.8843 18.9199C19.8556 18.8338 19.7917 18.764 19.7088 18.7275C19.6266 18.6897 19.5321 18.689 19.448 18.7249C19.2986 18.7895 19.1193 18.734 19.041 18.5984C18.9601 18.4588 18.9999 18.284 19.1355 18.1823C19.2079 18.1281 19.2549 18.0453 19.264 17.9547C19.2732 17.8647 19.2445 17.7747 19.1845 17.7062C18.6523 17.101 17.9669 16.7006 17.2025 16.5493C17.1125 16.5291 17.0186 16.5519 16.9449 16.6066C16.8712 16.6608 16.8236 16.7442 16.8138 16.8356C16.7968 17.0038 16.6612 17.131 16.4994 17.131C16.3377 17.131 16.202 17.0045 16.1851 16.8356C16.1753 16.7442 16.1283 16.6608 16.054 16.6066C15.9803 16.5519 15.8857 16.5297 15.7964 16.5493C15.0327 16.7012 14.3479 17.101 13.8157 17.7062C13.7557 17.774 13.727 17.8647 13.7361 17.9547C13.7453 18.0453 13.7916 18.1275 13.8646 18.1823C13.9996 18.284 14.0394 18.4588 13.9592 18.5984C13.8809 18.7334 13.7029 18.7882 13.5522 18.7249C13.4681 18.689 13.3742 18.6903 13.2914 18.7275C13.2086 18.7647 13.1453 18.8345 13.1159 18.9199C12.9796 19.3216 12.9131 19.6966 12.9131 20.0651C12.9131 20.4335 12.9796 20.8086 13.1159 21.2103C13.1453 21.2964 13.2085 21.3662 13.2914 21.4027C13.3735 21.4398 13.4681 21.4412 13.5522 21.4053C13.7035 21.342 13.8809 21.3968 13.9592 21.5318C14.04 21.6713 14.0003 21.8462 13.8646 21.9479C13.7922 22.002 13.7453 22.0848 13.7361 22.1755C13.727 22.2655 13.7557 22.3555 13.8157 22.424C14.3479 23.0292 15.0333 23.4296 15.7977 23.5809C15.8864 23.5985 15.981 23.5783 16.0553 23.5235C16.1296 23.4687 16.1766 23.3859 16.1864 23.2946C16.2034 23.1264 16.339 22.9992 16.5007 22.9992C16.6625 22.9992 16.7981 23.1257 16.8151 23.2946C16.8249 23.3859 16.8718 23.4694 16.9462 23.5235C17.0023 23.5653 17.0708 23.5874 17.1399 23.5874C17.1614 23.5874 17.1823 23.5855 17.2038 23.5809C17.9682 23.429 18.6536 23.0286 19.1858 22.424C19.2458 22.3562 19.2745 22.2655 19.2654 22.1755C19.2562 22.0849 19.2099 22.0027 19.1369 21.9479C19.0019 21.8462 18.9621 21.6714 19.0423 21.5318C19.1199 21.3962 19.298 21.3407 19.4493 21.4053C19.5328 21.4405 19.6273 21.4399 19.7101 21.4027C19.7929 21.3655 19.8562 21.2957 19.8856 21.2103C20.0206 20.8086 20.0871 20.4342 20.0871 20.0651C20.0871 19.696 20.0205 19.3216 19.8843 18.9199ZM16.5001 21.0434C15.9607 21.0434 15.5218 20.6045 15.5218 20.0651C15.5218 19.5258 15.9607 19.0869 16.5001 19.0869C17.0395 19.0869 17.4784 19.5258 17.4784 20.0651C17.4784 20.6044 17.0395 21.0434 16.5001 21.0434Z" fill="#D45769"/>
</g>
<defs>
<clipPath id="clip0_7090_10162">
<rect width="32" height="32" fill="white"/>
</clipPath>
</defs>
</svg>
