<svg width="16" height="16" viewBox="0 0 16 16" fill="none" xmlns="http://www.w3.org/2000/svg">
<path d="M8 16C6.94902 16.0028 5.90786 15.7971 4.93688 15.3949C3.9659 14.9927 3.08441 14.4019 2.34327 13.6568C1.5981 12.9156 1.00733 12.034 0.605117 11.0631C0.202906 10.0921 -0.002779 9.05098 2.83545e-05 8C-0.002779 6.94902 0.202906 5.90792 0.605117 4.93694C1.00733 3.96596 1.5981 3.08439 2.34327 2.34325C3.08441 1.59808 3.9659 1.0073 4.93688 0.605085C5.90786 0.202873 6.94902 -0.00277899 8 2.83588e-05C9.05098 -0.00277899 10.0921 0.202873 11.0631 0.605085C12.0341 1.0073 12.9156 1.59808 13.6567 2.34325C14.4019 3.08439 14.9927 3.96596 15.3949 4.93694C15.7971 5.90792 16.0028 6.94902 16 8C16.0028 9.05098 15.7971 10.0921 15.3949 11.0631C14.9927 12.034 14.4019 12.9156 13.6567 13.6568C12.9156 14.4019 12.0341 14.9927 11.0631 15.3949C10.0921 15.7971 9.05098 16.0028 8 16ZM7.49622 5.90143V11.3548H8.42843V5.90143H7.49622ZM7.96951 3.91537C7.89356 3.90954 7.81729 3.92038 7.74597 3.94713C7.67465 3.97387 7.6101 4.01588 7.55671 4.07021C7.46421 4.1758 7.4148 4.31233 7.41835 4.45266C7.41411 4.5917 7.46369 4.72703 7.55671 4.83046C7.61074 4.88369 7.6755 4.92473 7.74673 4.95082C7.81795 4.9769 7.89388 4.98743 7.96951 4.98169C8.04509 4.9869 8.12102 4.97612 8.19216 4.95007C8.2633 4.92401 8.32809 4.88326 8.38243 4.83046C8.47705 4.72783 8.52761 4.59218 8.52331 4.45266C8.52688 4.31186 8.47649 4.17503 8.38243 4.07021C8.32876 4.01627 8.26416 3.97453 8.19292 3.94781C8.12167 3.92109 8.04541 3.91003 7.96951 3.91537Z" fill="#FF0000"/>
</svg>
