<svg width="50" height="50" viewBox="0 0 50 50" fill="none" xmlns="http://www.w3.org/2000/svg">
<rect width="50" height="50" rx="25" fill="white" fill-opacity="0.2"/>
<path d="M32.8563 15.0991H17.1437C15.4422 15.0991 14.0625 16.4788 14.0625 18.1804V29.0382C14.0625 30.7397 15.4422 32.1194 17.1437 32.1194H21.7641L24.1875 34.5726C24.6195 35.0101 25.3266 35.0101 25.7586 34.5726L28.182 32.1194H32.8555C34.557 32.1194 35.9367 30.7397 35.9367 29.0382V18.1804C35.9375 16.4788 34.5578 15.0991 32.8563 15.0991ZM23.2656 27.8358C23.1719 27.9296 23.0547 27.9921 22.9297 28.0077L21 28.3358C20.5703 28.4062 20.2031 28.039 20.2734 27.6093L20.6016 25.6796C20.6172 25.5546 20.6797 25.4374 20.7734 25.3437L25.1016 21.0155L27.5938 23.5077L23.2656 27.8358ZM29.2188 21.8827L28.4219 22.6796L25.9297 20.1874L26.7266 19.3905C27.4141 18.703 28.5312 18.703 29.2188 19.3905C29.9062 20.078 29.9062 21.1952 29.2188 21.8827Z" fill="white"/>
</svg>
