<svg width="298" height="54" viewBox="0 0 298 54" fill="none" xmlns="http://www.w3.org/2000/svg">
<g clip-path="url(#clip0_20983_3082)">
<mask id="mask0_20983_3082" style="mask-type:luminance" maskUnits="userSpaceOnUse" x="0" y="0" width="298" height="54">
<path d="M298 0H0V54H298V0Z" fill="white"/>
</mask>
<g mask="url(#mask0_20983_3082)">
<path d="M19.7359 27.2401L17.2117 31.0055C17.2117 31.0055 5.11885 32.0645 0.92745 20.1447C-3.26394 8.22488 8.9228 -0.753228 15.7206 0.15282L15.6032 4.41242C14.253 4.36535 12.9146 4.73012 11.7758 5.47143C10.6369 6.20098 9.75638 7.27176 9.2398 8.53082C7.40826 12.9787 9.65072 17.9208 14.7579 18.4856C19.8533 19.0621 24.6082 19.0739 26.4867 20.686L22.8354 23.8983C21.0274 23.1217 19.0549 22.7687 17.0825 22.8864C13.1142 22.8864 6.91516 22.3216 4.5553 13.7788C4.5553 13.7788 1.81974 26.5929 19.7359 27.2401Z" fill="#0CA750"/>
<path d="M47.1618 38.5342V34.157C47.1618 34.157 34.7168 33.8157 33.7306 47.9007C33.7306 48.1948 33.6132 48.4655 33.4136 48.6773C33.2022 48.8773 32.9205 48.995 32.6387 48.995H31.5938L31.582 53.9135C32.9439 53.937 34.2706 53.5134 35.3742 52.7133C36.4661 51.9249 37.288 50.7835 37.6989 49.4892C39.2369 44.8295 37.511 39.8051 47.1501 38.5342H47.1618Z" fill="#0CA750"/>
<path d="M19.7359 27.2401L17.2117 31.0055C17.2117 31.0055 5.11885 32.0645 0.92745 20.1447C-3.26394 8.22488 8.9228 -0.753228 15.7206 0.15282L15.6032 4.41242C14.253 4.36535 12.9146 4.73012 11.7758 5.47143C10.6369 6.20098 9.75638 7.27176 9.2398 8.53082C7.40826 12.9787 9.65072 17.9208 14.7579 18.4856C19.8533 19.0621 24.6082 19.0739 26.4867 20.686L22.8354 23.8983C21.0274 23.1217 19.0549 22.7687 17.0825 22.8864C13.1142 22.8864 6.91516 22.3216 4.5553 13.7788C4.5553 13.7788 1.81974 26.5929 19.7359 27.2401Z" stroke="#0CA750" stroke-width="0.199939"/>
<path d="M25.3828 33.5587C25.3828 33.5587 29.1632 27.7224 34.9044 25.2984C40.6455 22.8862 42.5358 22.9568 44.6491 22.9568C46.7624 22.9568 54.7695 23.1804 57.1059 13.7198C57.4229 15.4025 57.3407 17.1322 56.8711 18.7678C56.3897 20.4034 55.5209 21.9095 54.3468 23.145C50.3315 27.287 47.8425 26.6633 43.3107 26.9457C38.7788 27.2281 31.6405 30.2405 28.2944 36.3122L31.347 39.1009C31.347 39.1009 36.2193 31.5936 44.2147 31.0288C52.1983 30.464 54.2412 30.5699 59.2896 23.4275C64.3263 16.2732 61.5438 1.32932 46.3045 0.0820312V4.12983C46.3045 4.12983 51.7404 4.8123 52.8206 9.51904C53.9007 14.2375 51.3999 18.3795 46.3632 18.3206C41.3382 18.3089 36.3837 19.5797 31.9927 22.0154C27.59 24.4394 23.88 27.9577 21.2148 32.2291L25.3828 33.5587Z" fill="#0CA750" stroke="#0CA750" stroke-width="0.199939"/>
<path d="M47.1618 38.5342V34.157C47.1618 34.157 34.7168 33.8157 33.7306 47.9007C33.7306 48.1948 33.6132 48.4655 33.4136 48.6773C33.2022 48.8773 32.9205 48.995 32.6387 48.995H31.5938L31.582 53.9135C32.9439 53.937 34.2706 53.5134 35.3742 52.7133C36.4661 51.9249 37.288 50.7835 37.6989 49.4892C39.2369 44.8295 37.511 39.8051 47.1501 38.5342" stroke="#0CA750" stroke-width="0.199939"/>
<path d="M16.2256 38.5342V34.157C16.2256 34.157 28.6706 33.8157 29.6568 47.9007C29.6568 48.1948 29.7625 48.4655 29.9738 48.6773C30.1734 48.8773 30.4552 48.995 30.7487 48.995H31.688V53.9135C30.3495 53.9253 29.0346 53.5017 27.9544 52.7015C26.8743 51.9131 26.076 50.7835 25.6885 49.4892C24.1388 44.8295 25.8764 39.8051 16.2256 38.5342Z" fill="#0CA750"/>
<path d="M16.2256 38.5342V34.157C16.2256 34.157 28.6706 33.8157 29.6568 47.9007C29.6568 48.1948 29.7625 48.4655 29.9738 48.6773C30.1734 48.8773 30.4552 48.995 30.7487 48.995H31.688V53.9135C30.3495 53.9253 29.0346 53.5017 27.9544 52.7015C26.8743 51.9131 26.076 50.7835 25.6885 49.4892C24.1388 44.8295 25.8764 39.8051 16.2256 38.5342Z" stroke="#0CA750" stroke-width="0.199939"/>
<path d="M79.5795 46.9913C77.4564 46.9913 75.5539 46.6459 73.8719 45.955C72.19 45.2642 70.8389 44.2417 69.8187 42.8876C68.8261 41.5335 68.3022 39.9031 68.2471 37.9963H75.7745C75.8848 39.074 76.257 39.9031 76.8912 40.4834C77.5253 41.0361 78.3525 41.3124 79.3727 41.3124C80.4205 41.3124 81.2477 41.0775 81.8543 40.6078C82.4609 40.1103 82.7642 39.4333 82.7642 38.5766C82.7642 37.8581 82.516 37.264 82.0197 36.7942C81.551 36.3244 80.9582 35.9375 80.2413 35.6335C79.552 35.3296 78.5593 34.9841 77.2634 34.5972C75.3884 34.0169 73.8582 33.4366 72.6725 32.8563C71.4869 32.2759 70.4667 31.4193 69.6119 30.2863C68.7572 29.1532 68.3298 27.6748 68.3298 25.8509C68.3298 23.1427 69.3086 21.0287 71.2663 19.5088C73.224 17.9613 75.7745 17.1875 78.9178 17.1875C82.1162 17.1875 84.6943 17.9613 86.652 19.5088C88.6096 21.0287 89.6574 23.1566 89.7953 25.8924H82.1438C82.0887 24.9528 81.744 24.2205 81.1098 23.6954C80.4756 23.1427 79.6622 22.8664 78.6696 22.8664C77.8149 22.8664 77.1255 23.1013 76.6017 23.5711C76.0778 24.0132 75.8158 24.6626 75.8158 25.5193C75.8158 26.4589 76.257 27.1912 77.1393 27.7163C78.0217 28.2413 79.4003 28.8078 81.2753 29.4158C83.1502 30.0514 84.6667 30.6593 85.8248 31.2397C87.0104 31.82 88.0306 32.6628 88.8854 33.7682C89.7401 34.8736 90.1675 36.2968 90.1675 38.0377C90.1675 39.6958 89.7401 41.2019 88.8854 42.556C88.0582 43.9101 86.845 44.9878 85.2458 45.7892C83.6465 46.5906 81.7578 46.9913 79.5795 46.9913Z" fill="#222448"/>
<path d="M115.406 17.602V23.2809H107.714V46.7012H100.641V23.2809H92.9482V17.602H115.406Z" fill="#222448"/>
<path d="M132.687 46.9913C129.957 46.9913 127.448 46.3557 125.16 45.0845C122.899 43.8134 121.093 42.0448 119.742 39.7787C118.418 37.4851 117.756 34.915 117.756 32.0687C117.756 29.2223 118.418 26.6661 119.742 24.4001C121.093 22.1341 122.899 20.3655 125.16 19.0943C127.448 17.8231 129.957 17.1875 132.687 17.1875C135.417 17.1875 137.912 17.8231 140.173 19.0943C142.462 20.3655 144.254 22.1341 145.55 24.4001C146.873 26.6661 147.535 29.2223 147.535 32.0687C147.535 34.915 146.873 37.4851 145.55 39.7787C144.226 42.0448 142.434 43.8134 140.173 45.0845C137.912 46.3557 135.417 46.9913 132.687 46.9913ZM132.687 40.5249C135.003 40.5249 136.851 39.7511 138.229 38.2036C139.636 36.656 140.339 34.6111 140.339 32.0687C140.339 29.4987 139.636 27.4537 138.229 25.9338C136.851 24.3863 135.003 23.6125 132.687 23.6125C130.343 23.6125 128.469 24.3725 127.062 25.8924C125.684 27.4123 124.994 29.471 124.994 32.0687C124.994 34.6387 125.684 36.6975 127.062 38.245C128.469 39.7649 130.343 40.5249 132.687 40.5249Z" fill="#222448"/>
<path d="M201.435 46.7012L191.674 33.8511V46.7012H184.602V17.602H191.674V30.3692L201.352 17.602H209.666L198.416 31.8614L210.079 46.7012H201.435Z" fill="#222448"/>
<path d="M231.514 41.5611H220.678L218.941 46.7012H211.538L222.043 17.602H230.232L240.737 46.7012H233.251L231.514 41.5611ZM229.694 36.0895L226.096 25.4364L222.539 36.0895H229.694Z" fill="#222448"/>
<path d="M258.741 46.7012L252.703 35.7164H251.007V46.7012H243.935V17.602H255.805C258.093 17.602 260.037 18.0027 261.636 18.8041C263.263 19.6055 264.476 20.7109 265.276 22.1203C266.076 23.502 266.475 25.0495 266.475 26.7629C266.475 28.6973 265.924 30.4244 264.821 31.9443C263.746 33.4642 262.147 34.542 260.023 35.1776L266.724 46.7012H258.741ZM251.007 30.7008H255.391C256.687 30.7008 257.652 30.383 258.286 29.7474C258.948 29.1118 259.279 28.2137 259.279 27.053C259.279 25.9476 258.948 25.0772 258.286 24.4416C257.652 23.806 256.687 23.4882 255.391 23.4882H251.007V30.7008Z" fill="#222448"/>
<path d="M291.802 17.602V23.2809H284.109V46.7012H277.036V23.2809H269.344V17.602H291.802Z" fill="#222448"/>
<path d="M170.781 46.7012L164.866 37.789L159.655 46.7012H151.631L160.937 31.9029L151.424 17.602H159.655L165.487 26.3898L170.615 17.602H178.639L169.416 32.2759L179.011 46.7012H170.781Z" fill="#0CA750"/>
</g>
</g>
<defs>
<clipPath id="clip0_20983_3082">
<rect width="298" height="54" fill="white"/>
</clipPath>
</defs>
</svg>
