<svg width="103" height="40" viewBox="0 0 103 40" fill="none" xmlns="http://www.w3.org/2000/svg">
<mask id="mask0_6987_2567" style="mask-type:luminance" maskUnits="userSpaceOnUse" x="1" y="2" width="27" height="27">
<path d="M20.9715 14.2257C20.2841 16.9514 19.0854 19.7286 17.0583 22.2829C13.5153 20.9629 9.95458 18.82 7.13424 15.34C8.49152 13.0257 10.2895 10.7971 12.722 8.91142C15.0664 9.78571 17.3932 11.0886 19.5437 12.9571C20.0549 13.3857 20.5308 13.8143 20.9715 14.2257ZM20.8305 4.48856C21.0773 4.62571 21.3417 4.76285 21.5708 4.91714C21.7647 6.87142 21.8 9.08285 21.5003 11.3971C20.4251 10.8486 19.1912 10.3 17.7986 9.75142C16.3356 9.16856 14.8902 8.70571 13.4976 8.34571C14.1498 7.88285 14.8373 7.45428 15.5776 7.04285C17.6576 5.89428 19.3851 5.07142 20.8305 4.48856ZM4.38441 7.09428C6.81695 4.50571 10.36 2.87714 14.3085 2.87714C15.1017 2.87714 15.8949 2.94571 16.6529 3.06571C15.2251 4.16285 13.6386 5.63714 11.8759 7.62571C11.8054 7.71142 11.7173 7.79714 11.6468 7.88285C9.05559 7.35142 6.60542 7.12856 4.38441 7.09428ZM2.95661 8.92857C3.32678 8.36285 3.7322 7.83142 4.17288 7.33428C6.41152 7.40285 8.80881 7.71142 11.2061 8.41428C9.37288 10.6086 7.94508 12.8371 6.83458 14.98C6.6583 14.7571 6.49966 14.5343 6.34102 14.3114C4.78983 12.1514 3.71458 10.3686 2.95661 8.92857ZM3.83797 23.3286C2.05763 21.1857 1 18.4771 1 15.5286C1 14.5686 1.10576 13.6257 1.33492 12.7343C2.4278 13.9857 3.9261 15.3743 5.95322 16.8657C4.91322 19.1971 4.26102 21.4086 3.83797 23.3286ZM11.4881 27.8886C8.4739 27.2714 5.84746 25.6943 3.97898 23.5C4.43729 21.5114 5.12475 19.2829 6.21763 17.0543C6.57017 17.3114 6.92271 17.5686 7.31051 17.8257C10.5715 20.0714 13.8325 21.5628 16.8468 22.5571C16.5471 22.9171 16.2298 23.2771 15.9125 23.6371C14.1851 25.4886 12.722 26.86 11.4881 27.8886ZM24.0563 24.1514C21.9763 26.2771 19.1207 27.7171 15.9302 28.0771C16.8292 26.7914 17.7634 25.1628 18.6976 23.1228C20.619 23.6371 22.4346 23.9628 24.0563 24.1514ZM26.4536 20.7228C25.8719 21.9228 25.1139 23.0371 24.1973 23.9971C22.5227 23.7914 20.6895 23.4314 18.8034 22.8657C18.9444 22.5571 19.0678 22.2486 19.2088 21.94C20.2841 19.3857 20.9715 16.9343 21.3946 14.62C24.4088 17.4657 25.8014 19.4543 26.4536 20.7228ZM27.6346 15.5286C27.6346 15.7 27.6346 15.8714 27.6169 16.06C26.5946 14.6886 24.8142 13.1457 21.8 11.5686C22.0115 9.15142 21.9586 6.95714 21.7471 5.03714C25.3078 7.29999 27.6346 11.1571 27.6346 15.5286Z" fill="white"/>
</mask>
<g mask="url(#mask0_6987_2567)">
<path d="M27.6346 2.87714H1V28.0771H27.6346V2.87714Z" fill="url(#paint0_linear_6987_2567)"/>
</g>
<path d="M27.6345 19.5143L34.7206 18.8628C35.0203 19.6857 35.4257 20.2686 35.9545 20.6286C36.4833 20.9886 37.1884 21.16 38.0521 21.16C39.004 21.16 39.7444 20.9714 40.2732 20.56C40.6786 20.2686 40.8901 19.8914 40.8901 19.4457C40.8901 18.9486 40.6257 18.5543 40.0969 18.28C39.7091 18.0914 38.6867 17.8514 37.0298 17.56C34.562 17.1314 32.8345 16.7543 31.865 16.3943C30.8955 16.0343 30.0847 15.4343 29.4325 14.5771C28.7627 13.7371 28.4454 12.76 28.4454 11.6628C28.4454 10.4628 28.7979 9.43428 29.5206 8.57714C30.2257 7.70285 31.2128 7.06856 32.4644 6.63999C33.7159 6.21142 35.3905 6.00571 37.4881 6.00571C39.7091 6.00571 41.3484 6.17714 42.406 6.50285C43.4637 6.82856 44.345 7.34285 45.0501 8.04571C45.7552 8.73142 46.3369 9.67428 46.8128 10.8571L40.044 11.5086C39.8677 10.9257 39.5857 10.4971 39.1627 10.2228C38.5986 9.86285 37.9288 9.67428 37.1355 9.67428C36.3423 9.67428 35.743 9.81142 35.3728 10.0857C35.0027 10.36 34.8264 10.7028 34.8264 11.0971C34.8264 11.5428 35.0555 11.8857 35.5315 12.1086C35.9898 12.3314 37.0121 12.5371 38.581 12.7257C40.943 12.9828 42.7057 13.3428 43.8691 13.8057C45.0325 14.2686 45.9138 14.9371 46.5308 15.8114C47.1477 16.6686 47.4474 17.6286 47.4474 18.6571C47.4474 19.7028 47.1301 20.7314 46.4779 21.7086C45.8257 22.7029 44.8033 23.4914 43.4108 24.0743C42.0183 24.6571 40.1145 24.9486 37.6996 24.9486C34.2976 24.9486 31.8827 24.4857 30.4372 23.5428C28.9566 22.6 28.0399 21.2457 27.6345 19.5143Z" fill="#000003"/>
<path d="M47.4475 6.63142H54.1106V9.27142C55.08 8.17428 56.0319 7.38571 57.0014 6.90571C57.9709 6.44285 59.1519 6.20285 60.5268 6.20285C62.0075 6.20285 63.1885 6.45999 64.0346 6.97428C64.8984 7.48856 65.6034 8.24285 66.1499 9.25428C67.2604 8.07142 68.2828 7.26571 69.217 6.83714C70.1336 6.40856 71.2794 6.20285 72.6367 6.20285C74.6285 6.20285 76.1973 6.78571 77.3078 7.93428C78.436 9.08285 78.9824 10.9 78.9824 13.3514V24.7171H71.8434V14.4314C71.8434 13.6086 71.6848 12.9914 71.3499 12.5971C70.8739 11.98 70.2746 11.6543 69.5695 11.6543C68.7234 11.6543 68.0536 11.9457 67.5424 12.5457C67.0312 13.1457 66.7845 14.0886 66.7845 15.3914V24.7343H59.6278V14.7571C59.6278 13.9686 59.575 13.42 59.4868 13.1457C59.3282 12.7 59.0638 12.3229 58.6936 12.0486C58.3234 11.7743 57.8828 11.6371 57.3716 11.6371C56.5607 11.6371 55.8909 11.9457 55.3621 12.5457C54.8333 13.1457 54.5689 14.14 54.5689 15.5114V24.7514H47.4475V6.63142Z" fill="#000003"/>
<path d="M93.7187 17.4486L100.488 18.2028C100.117 19.5743 99.5004 20.7743 98.6543 21.7686C97.7906 22.78 96.7153 23.5514 95.3933 24.1171C94.0712 24.6657 92.379 24.9571 90.3343 24.9571C88.3601 24.9571 86.7207 24.7857 85.3987 24.4257C84.0767 24.0657 82.9485 23.4828 82.0143 22.6943C81.0624 21.8886 80.3221 20.9457 79.7933 19.8657C79.2468 18.7857 78.9824 17.3628 78.9824 15.5628C78.9824 13.6943 79.2997 12.1514 79.9695 10.9C80.4455 9.99142 81.0977 9.1857 81.9262 8.44856C82.7546 7.72856 83.6007 7.17999 84.4821 6.83713C85.8746 6.27142 87.655 5.99713 89.8231 5.99713C92.855 5.99713 95.1817 6.52856 96.7682 7.59142C98.3546 8.63713 99.4828 10.1971 100.117 12.2371L93.4014 13.1114C93.1899 12.34 92.8021 11.7571 92.2556 11.3628C91.6916 10.9686 90.9512 10.78 90.017 10.78C88.836 10.78 87.8841 11.1914 87.1438 12.0143C86.4211 12.8371 86.0509 14.0886 86.0509 15.7514C86.0509 17.2428 86.4211 18.3743 87.1438 19.1457C87.8665 19.9171 88.7831 20.3114 89.9112 20.3114C90.8455 20.3114 91.6211 20.0714 92.2733 19.6086C92.9255 19.1457 93.4014 18.4257 93.7187 17.4486Z" fill="#000003"/>
<path d="M102.056 35.3743C101.933 35.3743 101.827 35.34 101.739 35.2543C101.651 35.1686 101.616 35.0657 101.616 34.9457C101.616 34.8257 101.651 34.7229 101.739 34.6371C101.827 34.5514 101.933 34.5171 102.056 34.5171C102.18 34.5171 102.268 34.5514 102.356 34.6371C102.444 34.7229 102.479 34.8257 102.479 34.9457C102.479 35.0657 102.444 35.1686 102.356 35.2543C102.268 35.34 102.162 35.3743 102.056 35.3743ZM98.4427 33.1629C98.4427 32.9229 98.3899 32.7171 98.2841 32.5457C98.1783 32.3743 98.0197 32.2371 97.8434 32.1514C97.6495 32.0657 97.4556 32.0143 97.2265 32.0143C96.8915 32.0143 96.6271 32.1171 96.398 32.3229C96.1688 32.5286 96.0454 32.8029 96.0102 33.1629H98.4427ZM99.1126 33.3C99.1126 33.42 99.1126 33.54 99.0949 33.6771H95.9926C96.0102 34.0543 96.1512 34.3457 96.3803 34.5514C96.6271 34.7571 96.9092 34.86 97.2441 34.86C97.5261 34.86 97.7553 34.7914 97.9492 34.6714C98.1431 34.5514 98.2665 34.38 98.337 34.1571H99.0244C98.9187 34.5171 98.7071 34.8257 98.4075 35.0486C98.0902 35.2714 97.7024 35.3914 97.2441 35.3914C96.8739 35.3914 96.539 35.3057 96.257 35.1514C95.9573 34.9971 95.7458 34.7571 95.5695 34.4657C95.4109 34.1743 95.3227 33.8314 95.3227 33.4371C95.3227 33.0429 95.4109 32.7 95.5695 32.4086C95.7281 32.1171 95.9573 31.8943 96.2393 31.7229C96.539 31.5686 96.8739 31.4829 97.2441 31.4829C97.6143 31.4829 97.9315 31.5686 98.2312 31.7229C98.5132 31.8771 98.7424 32.1 98.8834 32.3743C99.0244 32.6486 99.1126 32.9571 99.1126 33.3ZM91.339 35.4086C91.0393 35.4086 90.7749 35.3571 90.5282 35.2543C90.299 35.1514 90.1051 35.0143 89.9641 34.8429C89.8231 34.6714 89.7526 34.4657 89.7349 34.2257H90.4048C90.4224 34.4143 90.5105 34.5686 90.6868 34.6886C90.8454 34.8086 91.057 34.86 91.3214 34.86C91.5682 34.86 91.7621 34.8086 91.9031 34.7057C92.0441 34.6029 92.1146 34.4657 92.1146 34.3114C92.1146 34.14 92.0441 34.02 91.8854 33.9343C91.7268 33.8486 91.4976 33.78 91.1804 33.6943C90.8983 33.6257 90.6515 33.54 90.4753 33.4714C90.299 33.4029 90.1404 33.2829 89.9993 33.1286C89.8759 32.9743 89.8054 32.7857 89.8054 32.5457C89.8054 32.3571 89.8583 32.1686 89.9817 32.0143C90.1051 31.86 90.2637 31.7229 90.4929 31.6371C90.7044 31.5343 90.9512 31.5 91.2332 31.5C91.6563 31.5 92.0088 31.6029 92.2732 31.8257C92.5376 32.0314 92.6787 32.3229 92.6963 32.7H92.0441C92.0265 32.4943 91.9559 32.34 91.7973 32.22C91.6563 32.1 91.4448 32.0486 91.198 32.0486C90.9688 32.0486 90.7749 32.1 90.6515 32.1857C90.5105 32.2886 90.44 32.4086 90.44 32.5629C90.44 32.6829 90.4753 32.7857 90.5634 32.8714C90.6515 32.9571 90.7573 33.0086 90.8807 33.06C91.0041 33.1114 91.1804 33.1629 91.4095 33.2143C91.6915 33.2829 91.9207 33.3686 92.097 33.4371C92.2732 33.5057 92.4143 33.6086 92.5553 33.7629C92.6787 33.9 92.7492 34.0886 92.7492 34.3286C92.7492 34.5343 92.6963 34.7229 92.5729 34.8943C92.4495 35.0657 92.2909 35.1857 92.0793 35.2886C91.8678 35.3571 91.621 35.4086 91.339 35.4086ZM86.9675 31.5514V35.34H86.3153V31.5514H86.9675ZM86.6678 30.9343C86.5444 30.9343 86.4387 30.9 86.3505 30.8143C86.2624 30.7286 86.2271 30.6257 86.2271 30.5057C86.2271 30.3857 86.2624 30.2829 86.3505 30.1971C86.4387 30.1114 86.5444 30.0771 86.6678 30.0771C86.7912 30.0771 86.8793 30.1114 86.9675 30.1971C87.0556 30.2829 87.0909 30.3857 87.0909 30.5057C87.0909 30.6257 87.0556 30.7286 86.9675 30.8143C86.8793 30.9 86.7736 30.9343 86.6678 30.9343ZM83.7946 31.5514L82.5783 35.34H81.9085L80.9743 32.34L80.04 35.34H79.3702L78.1539 31.5514H78.8061L79.7051 34.7229L80.6746 31.5514H81.3268L82.2787 34.74L83.16 31.5514H83.7946ZM73.3065 33.1629C73.3065 32.9229 73.2536 32.7171 73.1478 32.5457C73.042 32.3743 72.8834 32.2371 72.7071 32.1514C72.5132 32.0657 72.3193 32.0143 72.0902 32.0143C71.7553 32.0143 71.4909 32.1171 71.2617 32.3229C71.0326 32.5286 70.9092 32.8029 70.8739 33.1629H73.3065ZM73.9763 33.3C73.9763 33.42 73.9763 33.54 73.9587 33.6771H70.8563C70.8739 34.0543 71.0149 34.3457 71.2441 34.5514C71.4909 34.7571 71.7729 34.86 72.1078 34.86C72.3898 34.86 72.619 34.7914 72.8129 34.6714C73.0068 34.5514 73.1302 34.38 73.2007 34.1571H73.8881C73.7824 34.5171 73.5709 34.8257 73.2712 35.0486C72.9539 35.2714 72.5661 35.3914 72.1078 35.3914C71.7376 35.3914 71.4027 35.3057 71.1207 35.1514C70.821 34.9971 70.6095 34.7571 70.4332 34.4657C70.2746 34.1743 70.1865 33.8314 70.1865 33.4371C70.1865 33.0429 70.2746 32.7 70.4332 32.4086C70.5919 32.1171 70.821 31.8943 71.1031 31.7229C71.4027 31.5686 71.7376 31.4829 72.1078 31.4829C72.478 31.4829 72.7953 31.5686 73.0949 31.7229C73.377 31.8771 73.6061 32.1 73.7471 32.3743C73.9058 32.6486 73.9763 32.9571 73.9763 33.3ZM67.0312 33.4371C67.0312 33.1457 66.9783 32.9057 66.8549 32.6829C66.7315 32.4771 66.5729 32.3057 66.379 32.2029C66.1851 32.1 65.9559 32.0314 65.7092 32.0314C65.48 32.0314 65.2509 32.0829 65.057 32.2029C64.8631 32.3229 64.6868 32.4771 64.581 32.7C64.4576 32.9057 64.4048 33.1629 64.4048 33.4371C64.4048 33.7286 64.4576 33.9686 64.581 34.1914C64.7044 34.3971 64.8631 34.5686 65.057 34.6886C65.2509 34.8086 65.48 34.86 65.7092 34.86C65.9559 34.86 66.1675 34.8086 66.379 34.6886C66.5729 34.5686 66.7315 34.4143 66.8549 34.1914C66.9783 33.9686 67.0312 33.7286 67.0312 33.4371ZM64.3871 32.2543C64.5281 32.0314 64.722 31.8429 64.9688 31.7057C65.2332 31.5686 65.5153 31.5 65.8502 31.5C66.2027 31.5 66.52 31.5857 66.802 31.74C67.0841 31.8943 67.2956 32.1343 67.4542 32.4257C67.6129 32.7171 67.701 33.06 67.701 33.4371C67.701 33.8143 67.6129 34.1571 67.4542 34.4657C67.2956 34.7571 67.0665 34.9971 66.7844 35.1686C66.5024 35.34 66.1851 35.4257 65.8502 35.4257C65.5153 35.4257 65.2156 35.3571 64.9688 35.22C64.722 35.0829 64.5281 34.8943 64.4048 34.6714V35.3743H63.7526V30.2657H64.4048V32.2543H64.3871ZM58.6759 35.3743C58.5526 35.3743 58.4468 35.34 58.3587 35.2543C58.2705 35.1686 58.2353 35.0657 58.2353 34.9457C58.2353 34.8257 58.2705 34.7229 58.3587 34.6371C58.4468 34.5514 58.5526 34.5171 58.6759 34.5171C58.7993 34.5171 58.8875 34.5514 58.9756 34.6371C59.0637 34.7229 59.099 34.8257 59.099 34.9457C59.099 35.0657 59.0637 35.1686 58.9756 35.2543C58.8875 35.34 58.7993 35.3743 58.6759 35.3743ZM55.0624 33.1629C55.0624 32.9229 55.0095 32.7171 54.9037 32.5457C54.798 32.3743 54.6393 32.2371 54.4631 32.1514C54.2692 32.0657 54.0753 32.0143 53.8461 32.0143C53.5112 32.0143 53.2468 32.1171 53.0176 32.3229C52.7885 32.5286 52.6651 32.8029 52.6298 33.1629H55.0624ZM55.7322 33.3C55.7322 33.42 55.7322 33.54 55.7146 33.6771H52.6122C52.6298 34.0543 52.7709 34.3457 53 34.5514C53.2468 34.7571 53.5288 34.86 53.8637 34.86C54.1458 34.86 54.3749 34.7914 54.5688 34.6714C54.7627 34.5514 54.8861 34.38 54.9566 34.1571H55.6441C55.5383 34.5171 55.3268 34.8257 55.0271 35.0486C54.7098 35.2714 54.322 35.3914 53.8637 35.3914C53.4936 35.3914 53.1586 35.3057 52.8766 35.1514C52.577 34.9971 52.3654 34.7571 52.1892 34.4657C52.0305 34.1743 51.9424 33.8314 51.9424 33.4371C51.9424 33.0429 52.0305 32.7 52.1892 32.4086C52.3478 32.1171 52.577 31.8943 52.859 31.7229C53.1587 31.5686 53.4936 31.4829 53.8637 31.4829C54.2339 31.4829 54.5512 31.5686 54.8509 31.7229C55.1329 31.8771 55.362 32.1 55.5031 32.3743C55.6441 32.6486 55.7322 32.9571 55.7322 33.3ZM47.9587 35.4086C47.659 35.4086 47.3946 35.3571 47.1478 35.2543C46.901 35.1514 46.7248 35.0143 46.5837 34.8429C46.4427 34.6714 46.3722 34.4657 46.3546 34.2257H47.0244C47.042 34.4143 47.1302 34.5686 47.3064 34.6886C47.4651 34.8086 47.6766 34.86 47.941 34.86C48.1878 34.86 48.3817 34.8086 48.5227 34.7057C48.6637 34.6029 48.7342 34.4657 48.7342 34.3114C48.7342 34.14 48.6637 34.02 48.5051 33.9343C48.3464 33.8486 48.1173 33.78 47.8 33.6943C47.518 33.6257 47.2712 33.54 47.0949 33.4714C46.9187 33.4029 46.76 33.2829 46.619 33.1286C46.4956 32.9743 46.4251 32.7857 46.4251 32.5457C46.4251 32.3571 46.478 32.1686 46.6014 32.0143C46.7248 31.86 46.8834 31.7229 47.1126 31.6371C47.3241 31.5343 47.5709 31.5 47.8529 31.5C48.2759 31.5 48.6285 31.6029 48.8929 31.8257C49.1573 32.0314 49.2983 32.3229 49.3159 32.7H48.6637C48.6461 32.4943 48.5756 32.34 48.417 32.22C48.2759 32.1 48.0644 32.0486 47.8176 32.0486C47.5885 32.0486 47.3946 32.1 47.2712 32.1857C47.1302 32.2886 47.0597 32.4086 47.0597 32.5629C47.0597 32.6829 47.0949 32.7857 47.1831 32.8714C47.2712 32.9571 47.377 33.0086 47.5003 33.06C47.6237 33.1114 47.8 33.1629 48.0292 33.2143C48.3112 33.2829 48.5403 33.3686 48.7166 33.4371C48.8929 33.5057 49.0339 33.6086 49.1749 33.7629C49.2983 33.9 49.3688 34.0886 49.3688 34.3286C49.3688 34.5343 49.3159 34.7229 49.1926 34.8943C49.0692 35.0657 48.9105 35.1857 48.699 35.2886C48.4875 35.3571 48.2407 35.4086 47.9587 35.4086ZM43.5871 31.5514V35.34H42.9525V31.5514H43.5871ZM43.2875 30.9343C43.1641 30.9343 43.0583 30.9 42.9702 30.8143C42.882 30.7286 42.8468 30.6257 42.8468 30.5057C42.8468 30.3857 42.882 30.2829 42.9702 30.1971C43.0583 30.1114 43.1641 30.0771 43.2875 30.0771C43.4109 30.0771 43.499 30.1114 43.5871 30.1971C43.6753 30.2829 43.7105 30.3857 43.7105 30.5057C43.7105 30.6257 43.6753 30.7286 43.5871 30.8143C43.499 30.9 43.3932 30.9343 43.2875 30.9343ZM40.4142 31.5514L39.198 35.34H38.5458L37.6115 32.34L36.6773 35.34H36.0075L34.7912 31.5514H35.4434L36.3424 34.7229L37.3119 31.5514H37.9641L38.8983 34.74L39.7797 31.5514H40.4142ZM32.7112 31.5514L30.3668 37.1229H29.697L30.4725 35.3057L28.9037 31.5514H29.6264L30.8427 34.62L32.0414 31.5514H32.7112ZM25.9424 33.1629C25.9424 32.9229 25.8895 32.7171 25.7837 32.5457C25.678 32.3743 25.5193 32.2371 25.3431 32.1514C25.1492 32.0657 24.9553 32.0143 24.7261 32.0143C24.3912 32.0143 24.1268 32.1171 23.8976 32.3229C23.6685 32.5286 23.5451 32.8029 23.5098 33.1629H25.9424ZM26.6122 33.3C26.6122 33.42 26.6122 33.54 26.5946 33.6771H23.4922C23.5098 34.0543 23.6509 34.3457 23.88 34.5514C24.1268 34.7571 24.4088 34.86 24.7437 34.86C25.0258 34.86 25.2549 34.7914 25.4488 34.6714C25.6427 34.5514 25.7661 34.38 25.8366 34.1571H26.5241C26.4183 34.5171 26.2068 34.8257 25.9071 35.0486C25.5898 35.2714 25.202 35.3914 24.7437 35.3914C24.3736 35.3914 24.0386 35.3057 23.7566 35.1514C23.457 34.9971 23.2454 34.7571 23.0692 34.4657C22.9105 34.1743 22.8224 33.8314 22.8224 33.4371C22.8224 33.0429 22.9105 32.7 23.0692 32.4086C23.2278 32.1171 23.457 31.8943 23.739 31.7229C24.0386 31.5686 24.3736 31.4829 24.7437 31.4829C25.1139 31.4829 25.4312 31.5686 25.7309 31.7229C26.0129 31.8771 26.242 32.1 26.3831 32.3743C26.5417 32.6486 26.6122 32.9571 26.6122 33.3ZM18.5214 31.4829C18.9973 31.4829 19.3851 31.62 19.6671 31.8943C19.9668 32.1686 20.1078 32.58 20.1078 33.0943V35.3229H19.4732V33.1971C19.4732 32.82 19.3675 32.5286 19.1736 32.3229C18.9797 32.1171 18.7153 32.0143 18.3803 32.0143C18.0454 32.0143 17.7634 32.1171 17.5695 32.3229C17.3756 32.5286 17.2698 32.8371 17.2698 33.2314V35.3229H16.6176V31.5343H17.2698V32.0657C17.3932 31.8771 17.5695 31.7229 17.7986 31.62C18.0278 31.5343 18.257 31.4829 18.5214 31.4829ZM11.8936 34.8429C12.1227 34.8429 12.3519 34.7914 12.5458 34.6886C12.7573 34.5857 12.9159 34.4314 13.0393 34.2086C13.1627 34.0029 13.2332 33.7457 13.2332 33.4371C13.2332 33.1286 13.1803 32.8714 13.057 32.6657C12.9336 32.46 12.7749 32.2886 12.581 32.1857C12.3871 32.0829 12.1756 32.0314 11.9288 32.0314C11.6997 32.0314 11.4705 32.0829 11.2766 32.1857C11.0827 32.2886 10.9241 32.4429 10.8007 32.6657C10.6773 32.8714 10.6244 33.1286 10.6244 33.4371C10.6244 33.7457 10.6773 34.0029 10.8007 34.2257C10.9241 34.4314 11.0651 34.6029 11.259 34.7057C11.4529 34.7914 11.6644 34.8429 11.8936 34.8429ZM11.8936 35.4086C11.5234 35.4086 11.2061 35.3229 10.9064 35.1686C10.6068 35.0143 10.3776 34.7743 10.219 34.4829C10.0427 34.1914 9.97221 33.8486 9.97221 33.4543C9.97221 33.06 10.0603 32.7171 10.2366 32.4257C10.4129 32.1343 10.642 31.8943 10.9417 31.74C11.2414 31.5857 11.5763 31.5 11.9464 31.5C12.3166 31.5 12.6515 31.5857 12.9512 31.74C13.2508 31.8943 13.48 32.1343 13.6563 32.4257C13.8325 32.7171 13.9207 33.06 13.9207 33.4543C13.9207 33.8486 13.8325 34.1914 13.6563 34.4829C13.48 34.7743 13.2332 35.0143 12.9336 35.1686C12.5986 35.3229 12.2637 35.4086 11.8936 35.4086ZM5.67119 31.4829C5.97085 31.4829 6.23525 31.5514 6.48203 31.6714C6.71119 31.7914 6.90509 31.98 7.0461 32.22C7.18712 32.46 7.25763 32.7686 7.25763 33.1114V35.34H6.62305V33.1971C6.62305 32.82 6.53492 32.5286 6.34102 32.3229C6.14712 32.1171 5.88271 32.0143 5.56542 32.0143C5.23051 32.0143 4.9661 32.1171 4.75458 32.3229C4.56068 32.5286 4.45492 32.8371 4.45492 33.2314V35.3229H3.82034V33.1971C3.82034 32.82 3.7322 32.5286 3.53831 32.3229C3.34441 32.1171 3.08 32.0143 2.76271 32.0143C2.4278 32.0143 2.16339 32.1171 1.95186 32.3229C1.75797 32.5286 1.6522 32.8371 1.6522 33.2314V35.3229H1V31.5343H1.6522V32.0829C1.77559 31.8771 1.95186 31.74 2.16339 31.62C2.37492 31.5171 2.6217 31.4657 2.86847 31.4657C3.20339 31.4657 3.48542 31.5343 3.7322 31.6714C3.97898 31.8086 4.17288 32.0314 4.29627 32.3057C4.40203 32.0314 4.57831 31.8257 4.84271 31.6886C5.08949 31.5514 5.37153 31.4829 5.67119 31.4829Z" fill="#000003"/>
<defs>
<linearGradient id="paint0_linear_6987_2567" x1="1.00005" y1="15.4797" x2="27.6315" y2="15.4797" gradientUnits="userSpaceOnUse">
<stop stop-color="#373F99"/>
<stop offset="1" stop-color="#52BF9D"/>
</linearGradient>
</defs>
</svg>
