<svg width="32" height="32" viewBox="0 0 32 32" fill="none" xmlns="http://www.w3.org/2000/svg">
<rect width="32" height="32" rx="16" fill="#E69D45" fill-opacity="0.1"/>
<path d="M20.3334 16.6667C19.6082 16.6667 18.8993 16.8817 18.2963 17.2846C17.6933 17.6875 17.2234 18.2602 16.9459 18.9302C16.6683 19.6002 16.5957 20.3375 16.7372 21.0487C16.8787 21.76 17.2279 22.4133 17.7407 22.9261C18.2535 23.4389 18.9068 23.7881 19.6181 23.9296C20.3294 24.0711 21.0666 23.9985 21.7366 23.721C22.4066 23.4434 22.9793 22.9735 23.3822 22.3705C23.7851 21.7675 24.0001 21.0586 24.0001 20.3334C23.9984 19.3615 23.6115 18.4298 22.9242 17.7426C22.237 17.0553 21.3054 16.6685 20.3334 16.6667ZM18.0001 20.3334C17.9942 19.8315 18.1504 19.3412 18.4453 18.9351C18.7402 18.529 19.1582 18.2288 19.6373 18.0791C20.1163 17.9294 20.6309 17.9381 21.1046 18.104C21.5783 18.2699 21.9858 18.5842 22.2668 19C22.2913 19.0364 22.3084 19.0772 22.3171 19.1201C22.3259 19.1631 22.3261 19.2073 22.3177 19.2504C22.3094 19.2934 22.2926 19.3343 22.2684 19.3709C22.2443 19.4074 22.2131 19.4389 22.1768 19.4634C22.1404 19.4879 22.0996 19.505 22.0567 19.5138C22.0137 19.5225 21.9695 19.5227 21.9265 19.5143C21.8834 19.506 21.8425 19.4892 21.8059 19.465C21.7694 19.4409 21.7379 19.4097 21.7134 19.3734C21.5745 19.1663 21.3907 18.9932 21.1757 18.867C20.9607 18.7407 20.72 18.6645 20.4715 18.644C20.2229 18.6235 19.973 18.6592 19.7402 18.7486C19.5074 18.8379 19.2977 18.9786 19.1268 19.16L19.4801 19.34C19.5317 19.3666 19.5755 19.4061 19.6071 19.4547C19.6388 19.5033 19.6572 19.5593 19.6605 19.6172C19.6639 19.6751 19.6521 19.7329 19.6263 19.7848C19.6005 19.8368 19.5616 19.8811 19.5134 19.9134L18.5134 20.5801C18.4638 20.6127 18.4061 20.6311 18.3468 20.6334C18.2616 20.6372 18.1781 20.6082 18.1137 20.5524C18.0492 20.4966 18.0085 20.4182 18.0001 20.3334ZM22.6668 20.4001C22.6554 20.8944 22.4868 21.3723 22.1855 21.7643C21.8842 22.1564 21.4658 22.4423 20.991 22.5805C20.5162 22.7187 20.0097 22.702 19.5451 22.5329C19.0804 22.3638 18.6817 22.0511 18.4068 21.6401C18.3572 21.5667 18.3389 21.4766 18.3558 21.3897C18.3727 21.3029 18.4234 21.2262 18.4968 21.1767C18.5701 21.1272 18.6602 21.1089 18.7471 21.1258C18.834 21.1426 18.9106 21.1933 18.9601 21.2667C19.099 21.4738 19.2828 21.6469 19.4978 21.7731C19.7129 21.8994 19.9536 21.9756 20.2021 21.9961C20.4506 22.0166 20.7005 21.9809 20.9333 21.8915C21.1661 21.8022 21.3758 21.6615 21.5468 21.4801L21.1934 21.3001C21.1418 21.2735 21.0981 21.234 21.0664 21.1854C21.0348 21.1368 21.0164 21.0808 21.013 21.0229C21.0096 20.965 21.0214 20.9072 21.0472 20.8553C21.073 20.8033 21.1119 20.759 21.1601 20.7267L22.1601 20.06C22.2336 20.0118 22.3232 19.9945 22.4093 20.012C22.4955 20.0295 22.5712 20.0803 22.6201 20.1534C22.6504 20.2037 22.6665 20.2613 22.6668 20.32C22.6668 20.32 22.6668 20.3734 22.6668 20.4001Z" fill="#E69D45"/>
<path d="M15.334 16C17.5431 16 19.334 14.2092 19.334 12C19.334 9.79087 17.5431 8 15.334 8C13.1249 8 11.334 9.79087 11.334 12C11.334 14.2092 13.1249 16 15.334 16Z" fill="#E69D45"/>
<path d="M16 20.3335C15.9908 19.2185 16.4137 18.1434 17.18 17.3334C17.2222 17.2896 17.2515 17.2351 17.2649 17.1758C17.2783 17.1165 17.2752 17.0547 17.256 16.997C17.2367 16.9394 17.2021 16.888 17.1558 16.8486C17.1095 16.8092 17.0534 16.7832 16.9934 16.7734C16.4439 16.6928 15.8887 16.6571 15.3334 16.6668C13.3449 16.7183 11.3957 17.2319 9.64001 18.1668C9.14763 18.4172 8.73396 18.7987 8.44458 19.2692C8.1552 19.7398 8.00136 20.2811 8 20.8335V21.3335C8 21.6871 8.14048 22.0262 8.39053 22.2763C8.64058 22.5263 8.97972 22.6668 9.33334 22.6668H16.12C16.1758 22.6664 16.2305 22.652 16.2793 22.6249C16.328 22.5979 16.3692 22.559 16.3991 22.5119C16.4289 22.4648 16.4465 22.411 16.4501 22.3554C16.4538 22.2997 16.4435 22.2441 16.42 22.1935C16.1422 21.6129 15.9986 20.9771 16 20.3335Z" fill="#E69D45"/>
</svg>
