<svg width="32" height="32" viewBox="0 0 32 32" fill="none" xmlns="http://www.w3.org/2000/svg">
<g clip-path="url(#clip0_7090_10128)">
<circle cx="16" cy="16" r="16" fill="#A20095" fill-opacity="0.1"/>
<path d="M22.88 19.0348C23.6688 19.7315 23.6288 20.7046 23.1843 21.3973C23.0161 21.6616 22.7398 22.002 22.3514 22.3904C21.6907 23.0511 20.4893 23.5156 19.6244 23.4996C17.0416 23.4596 15.2957 22.7668 12.2643 19.7355C9.23303 16.7042 8.54027 14.9624 8.50023 12.3756C8.48822 11.5066 8.94872 10.3093 9.60944 9.64861C9.99787 9.26019 10.3382 8.98389 10.6025 8.81571C11.2993 8.37123 12.2724 8.33119 12.9651 9.12004C13.2815 9.48043 13.8341 10.2172 14.1464 10.6417C14.711 11.4065 14.7991 12.4837 14.1704 13.2966C13.9982 13.5208 13.734 13.8331 13.5217 14.0814C13.3095 14.3297 13.2694 14.6781 13.4176 14.9664C13.81 15.7472 14.3266 16.452 14.9353 17.0646C15.5439 17.6773 16.2527 18.1899 17.0336 18.5823C17.3219 18.7264 17.6743 18.6904 17.9185 18.4782C18.1628 18.2659 18.4791 18.0017 18.7034 17.8295C19.5163 17.2008 20.5894 17.2889 21.3583 17.8535C21.7828 18.1618 22.5196 18.7144 22.88 19.0348ZM19.0998 9.77675C18.367 9.77675 17.6743 10.029 17.1217 10.4815L17.1096 9.66063C17.1056 9.44039 16.9254 9.2642 16.7052 9.2642C16.485 9.2682 16.3088 9.4484 16.3088 9.66864L16.3328 11.5547C16.3368 11.7709 16.509 11.9471 16.7292 11.9511L18.6153 11.9751H18.6193C18.8395 11.9751 19.0157 11.7989 19.0197 11.5787C19.0237 11.3585 18.8435 11.1743 18.6233 11.1743L17.5541 11.1623C17.9746 10.7858 18.5192 10.5776 19.0958 10.5776C20.3772 10.5776 21.4184 11.6187 21.4184 12.9001C21.4184 13.1204 21.5985 13.3006 21.8188 13.3006C22.039 13.3006 22.2192 13.1204 22.2192 12.9001C22.2232 11.1783 20.8217 9.77675 19.0998 9.77675ZM21.8668 14.2376L21.8909 16.1236C21.8949 16.3439 21.7147 16.5281 21.4944 16.5281H21.4904C21.2702 16.5281 21.094 16.3519 21.09 16.1316L21.078 15.3107C20.5254 15.7632 19.8326 16.0155 19.0998 16.0155C17.3779 16.0155 15.9764 14.614 15.9764 12.8921C15.9764 12.6719 16.1566 12.4917 16.3768 12.4917C16.5971 12.4917 16.7773 12.6719 16.7773 12.8921C16.7773 14.1735 17.8184 15.2146 19.0998 15.2146C19.6764 15.2146 20.221 15.0064 20.6415 14.63L19.5723 14.618C19.3521 14.614 19.1759 14.4338 19.1759 14.2136C19.1799 13.9933 19.3641 13.8171 19.5803 13.8171L21.4664 13.8411C21.6907 13.8452 21.8628 14.0213 21.8668 14.2376Z" fill="#A20095"/>
</g>
<defs>
<clipPath id="clip0_7090_10128">
<rect width="32" height="32" fill="white"/>
</clipPath>
</defs>
</svg>
