<svg width="24" height="24" viewBox="0 0 24 24" fill="none" xmlns="http://www.w3.org/2000/svg">
<rect x="0.4" y="0.4" width="23.2" height="23.2" rx="3.6" fill="white"/>
<rect x="0.4" y="0.4" width="23.2" height="23.2" rx="3.6" stroke="#707070" stroke-width="0.8"/>
<path d="M4.00123 12.942C3.66626 12.3586 3.66626 11.6415 4.00122 11.0581C5.76372 7.98823 8.58284 6 11.7598 6C14.9368 6 17.7559 7.9882 19.5184 11.058C19.8534 11.6414 19.8534 12.3585 19.5184 12.942C17.7559 16.0118 14.9368 18 11.7598 18C8.58283 18 5.76373 16.0118 4.00123 12.942Z" stroke="#707070" stroke-width="1.125"/>
<path d="M14.0098 12C14.0098 13.2426 13.0024 14.25 11.7598 14.25C10.5171 14.25 9.50977 13.2426 9.50977 12C9.50977 10.7574 10.5171 9.75 11.7598 9.75C13.0024 9.75 14.0098 10.7574 14.0098 12Z" stroke="#707070" stroke-width="1.125"/>
</svg>
